<mxfile host="Electron" modified="2024-06-12T09:52:52.134Z" agent="Mozilla/5.0 (Windows NT 10.0; Win64; x64) AppleWebKit/537.36 (KHTML, like Gecko) draw.io/24.5.1 Chrome/124.0.6367.207 Electron/30.0.6 Safari/537.36" etag="MKh27KHInaSCyPhpnLH9" version="24.5.1" type="device">
  <diagram name="Page-1" id="zgownJbY17lxazxjH0V5">
    <mxGraphModel dx="1823" dy="866" grid="0" gridSize="10" guides="1" tooltips="1" connect="1" arrows="1" fold="1" page="1" pageScale="1" pageWidth="3300" pageHeight="4681" math="0" shadow="0">
      <root>
        <mxCell id="0" />
        <mxCell id="1" parent="0" />
        <mxCell id="XUXJ2vGDrbtLXx0CB2fA-1" value="" style="rounded=0;whiteSpace=wrap;html=1;" vertex="1" parent="1">
          <mxGeometry x="60" y="42" width="721" height="650" as="geometry" />
        </mxCell>
        <mxCell id="XUXJ2vGDrbtLXx0CB2fA-2" value="" style="rounded=0;whiteSpace=wrap;html=1;" vertex="1" parent="1">
          <mxGeometry x="60" y="42" width="720" height="74" as="geometry" />
        </mxCell>
        <mxCell id="XUXJ2vGDrbtLXx0CB2fA-3" value="&lt;font style=&quot;font-size: 18px;&quot;&gt;Webb App&lt;/font&gt;" style="text;html=1;align=center;verticalAlign=middle;whiteSpace=wrap;rounded=0;" vertex="1" parent="1">
          <mxGeometry x="390.5" y="64" width="60" height="30" as="geometry" />
        </mxCell>
        <mxCell id="XUXJ2vGDrbtLXx0CB2fA-4" value="Expected Wage:" style="text;html=1;align=center;verticalAlign=middle;whiteSpace=wrap;rounded=0;" vertex="1" parent="1">
          <mxGeometry x="219" y="134" width="138" height="30" as="geometry" />
        </mxCell>
        <mxCell id="XUXJ2vGDrbtLXx0CB2fA-5" value="" style="rounded=0;whiteSpace=wrap;html=1;" vertex="1" parent="1">
          <mxGeometry x="131" y="263" width="352" height="31" as="geometry" />
        </mxCell>
        <mxCell id="XUXJ2vGDrbtLXx0CB2fA-8" value="" style="rounded=0;whiteSpace=wrap;html=1;" vertex="1" parent="1">
          <mxGeometry x="351" y="143" width="262" height="31" as="geometry" />
        </mxCell>
        <mxCell id="XUXJ2vGDrbtLXx0CB2fA-9" value="" style="ellipse;whiteSpace=wrap;html=1;aspect=fixed;" vertex="1" parent="1">
          <mxGeometry x="140" y="244" width="80" height="80" as="geometry" />
        </mxCell>
        <mxCell id="XUXJ2vGDrbtLXx0CB2fA-10" value="&lt;font style=&quot;font-size: 14px;&quot;&gt;% Rent&lt;/font&gt;" style="text;html=1;align=center;verticalAlign=middle;whiteSpace=wrap;rounded=0;" vertex="1" parent="1">
          <mxGeometry x="518" y="264" width="60" height="30" as="geometry" />
        </mxCell>
        <mxCell id="XUXJ2vGDrbtLXx0CB2fA-11" value="" style="rounded=0;whiteSpace=wrap;html=1;" vertex="1" parent="1">
          <mxGeometry x="131" y="359" width="352" height="31" as="geometry" />
        </mxCell>
        <mxCell id="XUXJ2vGDrbtLXx0CB2fA-12" value="" style="ellipse;whiteSpace=wrap;html=1;aspect=fixed;" vertex="1" parent="1">
          <mxGeometry x="140" y="340" width="80" height="80" as="geometry" />
        </mxCell>
        <mxCell id="XUXJ2vGDrbtLXx0CB2fA-13" value="&lt;font style=&quot;font-size: 14px;&quot;&gt;% Savings&lt;/font&gt;" style="text;html=1;align=center;verticalAlign=middle;whiteSpace=wrap;rounded=0;" vertex="1" parent="1">
          <mxGeometry x="518" y="360" width="93" height="30" as="geometry" />
        </mxCell>
        <mxCell id="XUXJ2vGDrbtLXx0CB2fA-14" value="" style="whiteSpace=wrap;html=1;aspect=fixed;" vertex="1" parent="1">
          <mxGeometry x="160.5" y="482" width="39" height="39" as="geometry" />
        </mxCell>
        <mxCell id="XUXJ2vGDrbtLXx0CB2fA-15" value="&lt;font style=&quot;font-size: 14px;&quot;&gt;GYM&lt;/font&gt;" style="text;html=1;align=center;verticalAlign=middle;whiteSpace=wrap;rounded=0;" vertex="1" parent="1">
          <mxGeometry x="240" y="487" width="60" height="30" as="geometry" />
        </mxCell>
        <mxCell id="XUXJ2vGDrbtLXx0CB2fA-16" value="" style="whiteSpace=wrap;html=1;aspect=fixed;" vertex="1" parent="1">
          <mxGeometry x="490" y="481.5" width="40" height="40" as="geometry" />
        </mxCell>
        <mxCell id="XUXJ2vGDrbtLXx0CB2fA-17" value="Nights Out" style="text;html=1;align=center;verticalAlign=middle;whiteSpace=wrap;rounded=0;" vertex="1" parent="1">
          <mxGeometry x="571" y="482" width="78" height="30" as="geometry" />
        </mxCell>
      </root>
    </mxGraphModel>
  </diagram>
</mxfile>
